<?xml version="1.0" encoding="UTF-8"?>
<svg id="Capa_2" data-name="Capa 2" xmlns="http://www.w3.org/2000/svg" xmlns:xlink="http://www.w3.org/1999/xlink" viewBox="0 0 2249.46 2138.13">
  <defs>
    <style>
      .cls-1 {
        fill: #ffb629;
      }

      .cls-1, .cls-2, .cls-3, .cls-4, .cls-5, .cls-6 {
        stroke-width: 0px;
      }

      .cls-2 {
        fill: #f2faff;
      }

      .cls-3 {
        fill: url(#radial-gradient);
      }

      .cls-4 {
        fill: #ff7b00;
      }

      .cls-5 {
        fill: #b1bac8;
      }

      .cls-6 {
        fill: #162941;
      }
    </style>
    <radialGradient id="radial-gradient" cx="1198.53" cy="1031.12" fx="1198.53" fy="1031.12" r="1021.09" gradientTransform="translate(-160.88 2.81) scale(1.09 1.04)" gradientUnits="userSpaceOnUse">
      <stop offset="0" stop-color="#fff"/>
      <stop offset="1" stop-color="#fff" stop-opacity="0"/>
    </radialGradient>
  </defs>
  <g id="Capa_1-2" data-name="Capa 1">
    <g>
      <polygon class="cls-3" points="1140.04 544.22 1209.7 14.31 1209.57 548.41 1347.93 31.06 1277.99 560.93 1482.87 64.29 1344.24 581.58 1612.41 113.48 1407.27 610.02 1734.5 177.85 1466.09 645.82 1847.21 256.39 1519.77 688.41 1948.77 347.86 1567.45 737.11 2037.58 450.81 1608.4 791.16 2112.23 563.63 1641.96 849.71 2171.55 684.53 1667.6 911.82 2214.6 811.61 1684.92 976.53 2240.71 942.87 1693.66 1042.82 2249.46 1076.22 1693.66 1109.63 2240.71 1209.58 1684.92 1175.91 2214.6 1340.83 1667.6 1240.62 2171.55 1467.91 1641.96 1302.74 2112.23 1588.81 1608.4 1361.28 2037.58 1701.63 1567.45 1415.34 1948.77 1804.59 1519.77 1464.04 1847.21 1896.06 1466.09 1506.62 1734.5 1974.6 1407.27 1542.42 1612.41 2038.97 1344.24 1570.87 1482.87 2088.16 1277.99 1591.51 1347.93 2121.39 1209.57 1604.03 1209.7 2138.13 1140.04 1608.23 1070.38 2138.13 1070.52 1604.03 932.16 2121.39 1002.09 1591.51 797.21 2088.16 935.84 1570.87 667.68 2038.97 872.81 1542.42 545.59 1974.6 813.99 1506.62 432.87 1896.06 760.32 1464.04 331.31 1804.59 712.63 1415.34 242.51 1701.63 671.69 1361.28 167.85 1588.81 638.13 1302.74 108.53 1467.91 612.48 1240.62 65.48 1340.83 595.16 1175.91 39.37 1209.58 586.43 1109.63 30.63 1076.22 586.43 1042.82 39.37 942.87 595.16 976.53 65.48 811.61 612.48 911.82 108.53 684.53 638.13 849.71 167.85 563.63 671.69 791.16 242.51 450.81 712.63 737.11 331.31 347.86 760.32 688.41 432.87 256.39 813.99 645.82 545.59 177.85 872.81 610.02 667.68 113.48 935.84 581.58 797.21 64.29 1002.09 560.93 932.16 31.06 1070.52 548.41 1070.38 14.31 1140.04 544.22"/>
      <g>
        <polygon class="cls-4" points="1740.94 1084.35 1892.28 958.21 1709.37 885.02 1814.32 718.28 1617.74 705.19 1666.04 514.19 1475.03 562.48 1461.94 365.9 1295.21 470.86 1222.01 287.94 1095.87 439.28 969.73 287.94 896.53 470.86 729.8 365.9 716.71 562.48 525.71 514.19 574 705.19 377.42 718.28 482.38 885.02 299.46 958.21 450.8 1084.35 299.46 1210.49 482.38 1283.69 377.42 1450.42 574 1463.51 525.71 1654.52 716.71 1606.22 729.8 1802.8 896.53 1697.85 969.73 1880.76 1095.87 1729.42 1222.01 1880.76 1295.21 1697.85 1461.94 1802.8 1475.03 1606.22 1666.04 1654.52 1617.74 1463.51 1814.32 1450.42 1709.37 1283.69 1892.28 1210.49 1740.94 1084.35"/>
        <ellipse class="cls-2" cx="1081.1" cy="1082.41" rx="556.82" ry="583.08"/>
        <ellipse class="cls-1" cx="1111.39" cy="1082.15" rx="536.58" ry="583.08"/>
        <path class="cls-5" d="M240.73,509.54c-11.01-1.14-22.02-4.97-31.77-9.5-19.38-9.01-38.18-22.72-51.09-40.01-15.21,14.59-32.43,26.06-51.25,35.58-1.44.73-2.85,1.03-4.19,1.02l.53.7c-39.08.06-70.75,33.32-70.75,74.35s31.72,74.35,70.85,74.35,70.85-33.29,70.85-74.35c0-3.74-.27-7.42-.78-11.01l67.59-51.11Z"/>
        <path class="cls-2" d="M556.95,434.7c10.65-51.43-32.05-129.98-61.68-155.57-20.12-17.38-11.38-58.86-51.85-99.34-40.48-40.48-95.92-50.67-123.82-22.76-10.4,10.4-15.51,24.63-15.72,40.49-27.95-9.43-54.22-7.15-70.26,8.89-13.51,13.51-17.25,34.3-12.46,57.23-24.38-6.01-46.69-2.62-60.93,11.62-14.68,14.67-17.84,37.93-11.05,63.18-36.04,7.88-63.03,39.96-63.03,78.37,0,29.5,15.59,51.07,33.74,72.74,15.69-11.29,30.11-23.71,50.45-13.46,16.04,8.09,27.36,28.51,46.36,29.88,9.18.67,11.31,11.12,4.43,16.36-16.35,12.45-32.47,25.18-48.54,37.98,23.38,29.66,63.81,62.62,142.07,56.9,8.24,20.35,2.16,35.62,24.63,47.21,58.74,30.29,145.41-30.41,164.42-44.08,50.1-36.01,81.59-115.42,86.22-135.01,5.74-24.29-20.46-38.15-32.98-50.62Z"/>
        <path class="cls-2" d="M1872.45,1618.65c32.68,71.17-89.29,199.43-199.43,199.43s-199.43-89.29-199.43-199.43,72.48-193.81,95.55-215.53c0,0-27.91-62.81-5.27-74.44,46.47-23.86,165.46-1.99,199.3,24.24,154.08,119.4,43.66,132.9,71.32,164.87,32.86,37.99,23.65,69.69,37.96,100.86Z"/>
        <path class="cls-2" d="M962.74,855.1c-7.43,74.8-51.37,134.83-98.16,134.09-46.78-.74-78.69-61.97-71.26-136.77,7.43-74.8,51.37-134.83,98.16-134.09,46.78.74,78.69,61.97,71.26,136.77Z"/>
        <path class="cls-2" d="M1252.4,895.48c-7.43,74.8-51.37,134.83-98.16,134.09-46.78-.74-78.69-61.97-71.26-136.77,7.43-74.8,51.37-134.83,98.16-134.09,46.78.74,78.69,61.97,71.26,136.77Z"/>
        <path class="cls-5" d="M668.94,30.42v59.37c0,6.67-6.1,9.4-11.1,8.2-10.81,9.36-21.04,21.74-36.7,20.96-14.97-.74-29.3-9.66-42.53-16.18-3.73-.66-7.02-3.43-7.02-8.32V20.97c-39.52,16.31-67.45,56.16-67.45,102.77,0,1.25.05,2.49.09,3.73l-2.44,1.85c-.06,16.49-5.34,32.83-11.74,47.83-4.45,10.43-9.74,20.62-16.1,30.07,11.21,16.61,12.81,36,10.89,55.29,1.03.36,2.04.93,3.01,1.76,11.75,10.13,21.44,23.15,28.25,37.45l89.25-67.5c1.98.11,3.98.18,5.99.18,59.21,0,107.21-49.55,107.21-110.67,0-39.23-19.79-73.67-49.62-93.32Z"/>
        <path class="cls-2" d="M1272.65,1047.56s-28.5,185.52-197.2,250.87c-95.53,37.01-244.68-41.22-244.68-65.36,0-56.95,104.91-154.84,194.06-154.84,166.41,0,247.82-30.68,247.82-30.68Z"/>
        <g>
          <path class="cls-6" d="M792.44,834.07c5.87,2.31,12.49-.58,14.8-6.44,18.21-46.28,47.63-80.3,74.35-88.2-28.57,18.45-53.16,64.76-60.32,119.33-9.35,71.31,14.59,129.66,53.47,130.33,30.38.52,60.89-34.32,77.25-83.6l-49.86-29.39c-7.38-4.35-7.38-15.02,0-19.37l53.77-31.69,8.13-4.79c-.98-31.84-8.57-59.69-22.26-78.68-11.18-15.52-25.98-24.66-42.8-26.42-41.37-4.36-86.76,37.5-112.97,104.11-2.31,5.86.58,12.49,6.44,14.8Z"/>
          <path class="cls-6" d="M1082.68,876.2c5.87,2.31,12.49-.58,14.8-6.44,18.21-46.28,47.63-80.29,74.35-88.19-28.57,18.45-53.16,64.76-60.32,119.33-9.35,71.31,14.59,129.66,53.47,130.33,31.7.55,63.55-37.43,79.3-90.12l-49.11-28.95c-7.38-4.35-7.38-15.02,0-19.37l53.77-31.69,5.14-3.03c-1.51-30.03-9.01-56.23-22.07-74.36-11.18-15.52-25.98-24.66-42.79-26.42-41.38-4.35-86.76,37.5-112.97,104.11-2.31,5.86.58,12.49,6.44,14.8Z"/>
          <path class="cls-6" d="M1073.5,1332.14c-32.28,11.96-65.56,15.55-98.94,10.65-22.75-3.34-44.89-10.58-65.82-21.53-5.59-2.92-12.48-.76-15.4,4.82-2.92,5.58-.76,12.48,4.82,15.4,23.21,12.14,47.8,20.18,73.09,23.89,10.78,1.58,21.55,2.37,32.28,2.37,26.31,0,52.4-4.75,77.91-14.2,5.91-2.19,8.93-8.76,6.73-14.67-2.19-5.91-8.76-8.93-14.67-6.73Z"/>
          <path class="cls-6" d="M1261.77,992.32c-6.3,0-11.41,5.11-11.41,11.41s5.11,11.41,11.41,11.41,12.73,1.85,18.01,5.01l-28.21,14.03c-48.9,24.33-107.91,37.18-170.65,37.18-7.68,0-15.41-.2-23.18-.59-18.79-.94-37.78-3.03-56.79-6.19-37.95-6.31-75.98-16.94-112.63-31.66-48.35-19.43-92.73-45.03-131.92-76.11l-21.06-16.7c6.32-1.72,13.18-1.73,19.87.4,6.01,1.91,12.42-1.41,14.34-7.41,1.91-6.01-1.41-12.42-7.41-14.34-30.48-9.71-63.17,7.19-72.88,37.67-1.91,6.01,1.4,12.42,7.41,14.34,1.15.37,2.32.54,3.47.54,4.84,0,9.32-3.1,10.87-7.95,1.62-5.1,4.33-9.54,7.75-13.21l.66,25.15c2.19,84.12,27.81,164.77,72.15,227.08,7.45,10.48,15.37,20.32,23.69,29.53,5.85,6.47,11.9,12.62,18.13,18.44,39.47,36.81,86.33,60.32,136.21,67.64,11.2,1.64,22.57,2.48,33.8,2.48,32.02,0,63.66-6.63,94.04-19.71,29.25-12.59,56.69-30.89,81.57-54.37,24.53-23.16,45.98-50.81,63.74-82.18,18.03-31.84,31.87-66.85,41.14-104.05l7.26-29.14c3.67,5.55,5.82,12.2,5.82,19.34,0,6.3,5.11,11.41,11.41,11.41s11.41-5.11,11.41-11.41c0-31.99-26.02-58.01-58.01-58.01ZM1003.4,1297.63c-10.08,0-20.26-.73-30.49-2.23-49.92-7.33-94.73-32.02-131.3-68.82,27.87-68.39,87.29-120.68,160.08-138.7,26.85,4.22,53.37,6.32,79.22,6.32,66.61,0,128.81-13.7,180.82-39.57-35.65,143.07-140.62,243.01-258.34,243.01Z"/>
          <path class="cls-6" d="M102.09,542.74c-14.48,0-26.22,11.74-26.22,26.22s11.74,26.22,26.22,26.22,26.22-11.74,26.22-26.22-11.74-26.22-26.22-26.22Z"/>
          <path class="cls-6" d="M1922.32,1205.58c-1.09-6.85-4.74-13.16-10.27-17.77l-124.42-103.7,124.42-103.7c5.53-4.61,9.18-10.92,10.27-17.77,2.15-13.51-5.18-26.49-17.84-31.55l-150.65-60.29,86.28-137.07c3.84-6.1,5.36-13.23,4.28-20.08-2.12-13.52-13.11-23.6-26.72-24.51l-161.9-10.78,39.77-157.31c2.49-9.83-.42-20.4-7.6-27.58-5.47-5.47-12.74-8.48-20.49-8.48-2.39,0-4.77.3-7.08.88l-157.33,39.78-10.79-161.9c-.68-10.13-6.71-19.28-15.75-23.89-4.05-2.06-8.6-3.15-13.15-3.15-5.46,0-10.8,1.54-15.43,4.45l-137.33,86.45-60.13-150.26c-3.06-7.64-9.05-13.68-16.43-16.58-3.41-1.34-6.98-2.01-10.62-2.01-8.62,0-16.72,3.8-22.25,10.42l-103.89,124.64-103.89-124.64c-5.52-6.62-13.63-10.42-22.25-10.42-4.64,0-9.29,1.14-13.43,3.3-6.1,3.17-10.92,8.57-13.58,15.22l-60.16,150.34-137.08-86.29c-4.8-3.02-10.24-4.62-15.74-4.62-1.46,0-2.93.11-4.36.34-13.51,2.13-23.58,13.12-24.48,26.71l-10.78,161.9-74.4-18.81c4.53-26.16-.29-49.52-14.11-67.05-5.7-7.23-12.66-13.22-20.78-17.89-1.81-34.68-10.93-71.29-27.19-109.16,11.32-8.51,22.97-17.05,33.71-24.71,17.95-12.79,38.25-23.51,62.06-32.79,18.26-7.11,36.31-19.16,53.65-35.81.18-.17.39-.37.59-.58,29.47-29.47,46.26-69.17,46.07-108.92-.16-34.96-13.38-67.13-37.22-90.6-5.49-5.47-10.84-9.65-17.32-13.54-6.28-3.76-13.46-5.75-20.78-5.75-7.71,0-15.22,2.19-21.73,6.34-11.68,7.45-18.65,20.45-18.65,34.77v38.72l-16.95,9.62-16.96-9.62v-38.11c0-22.27-18.12-40.38-40.38-40.38-11.17,0-19.4,4-30.67,11.39-7.92,5.19-14.39,10.45-19.23,15.62-24.11,24.42-38.93,56.9-45.29,99.29-1.43,9.68-4.3,19.95-8.57,30.7l-32.41-27.35c-16.73-14.12-38.02-21.9-59.94-21.9-27.53,0-53.47,12.03-71.17,33-5.16,6.12-9.46,12.79-12.86,19.95-2.12.04-4.26.14-6.36.32-24.81,2.1-47.28,13.69-63.26,32.63-8.77,10.39-15.07,22.42-18.6,35.37-2.22.34-4.42.75-6.6,1.25-24.28,5.5-44.94,20.07-58.16,41.03-9.59,15.21-14.5,32.83-14.27,50.67-11.08,6.46-21.04,14.83-29.23,24.65-29.32,35.14-34.08,83.82-12.17,124.11-17.44,5.25-33.4,15.16-45.87,28.83-19.1,20.94-28.4,48.07-26.18,76.4,1.86,23.69,12.17,46.13,29.04,63.19,16.87,17.06,39.2,27.62,62.87,29.73,3.06.27,6.16.41,9.21.41,23.35,0,46.16-8.16,64.23-22.98,10.9-8.94,19.79-20.04,26.13-32.45,30.91,21.47,62.25,32.34,93.42,32.34,1.97,0,3.95-.05,5.93-.13,2.53,10.27,7.03,19.55,13.47,27.7,11.73,14.88,28.58,24.39,49.36,28.04-1.87,3.14-3.17,6.68-3.77,10.5-1.07,6.85.46,13.97,4.29,20.06l86.28,137.06-150.64,60.29c-12.66,5.07-19.99,18.04-17.84,31.55,1.09,6.85,4.74,13.16,10.27,17.77l124.42,103.7-124.43,103.71c-5.54,4.61-9.18,10.93-10.27,17.79-2.14,13.51,5.19,26.48,17.84,31.54l150.64,60.29-86.28,137.07c-3.84,6.1-5.36,13.23-4.28,20.08,2.13,13.52,13.11,23.59,26.71,24.5l161.9,10.78-39.77,157.31c-2.49,9.84.42,20.41,7.6,27.58,5.38,5.39,12.85,8.48,20.48,8.48,2.4,0,4.79-.3,7.11-.89l157.3-39.77,10.78,161.9c.68,10.13,6.71,19.28,15.75,23.88,4.06,2.07,8.6,3.16,13.15,3.16,5.47,0,10.81-1.54,15.43-4.45l137.32-86.44,60.14,150.28c3.06,7.65,9.06,13.69,16.46,16.58,3.39,1.32,6.96,2,10.58,2,8.62,0,16.73-3.8,22.25-10.42l103.88-124.64,103.89,124.64c5.52,6.62,13.63,10.42,22.25,10.42,1.51,0,3.04-.12,4.53-.36,10.02-1.59,18.59-8.42,22.36-17.85l60.29-150.65,137.08,86.29c4.8,3.02,10.24,4.62,15.74,4.62,1.46,0,2.93-.11,4.36-.34,13.51-2.13,23.57-13.12,24.48-26.71l3.12-46.82c18.85,24.05,42.49,44.1,70.06,59.21,33.75,18.5,71.72,28.28,109.8,28.28,21.22,0,42.43-2.98,63.05-8.86,58.3-16.62,106.82-54.85,136.62-107.65l19.89-35.23c13.04-23.11,16.22-49.89,8.96-75.4-2.95-10.37-7.48-20.02-13.49-28.77,1.81-13.38.84-27.14-2.89-40.23-4.37-15.34-12.13-29.03-22.78-40.36.78-1.29,1.51-2.6,2.2-3.93,17.84-34.4,5.66-79.17-32.49-121.27,12.13-37.59,12.77-78.96,1.9-118.98l68.24-27.31c12.66-5.07,19.99-18.04,17.84-31.55ZM1464.1,1620l-10.84,162.7-150.54-94.76c-2.86-1.8-6.38-2.24-9.61-1.2-3.22,1.05-5.81,3.47-7.07,6.61l-66.09,165.15-113.89-136.64c-2.17-2.6-5.38-4.11-8.77-4.11s-6.6,1.5-8.77,4.11l-113.89,136.64-66.09-165.15c-1.26-3.14-3.85-5.57-7.07-6.61-3.22-1.04-6.74-.61-9.61,1.2l-150.54,94.76-11.82-177.49c-.22-3.38-1.94-6.48-4.68-8.47-2.74-1.99-6.22-2.66-9.5-1.83l-172.45,43.6,43.6-172.45c.83-3.28.16-6.77-1.83-9.5-1.99-2.74-5.1-4.45-8.47-4.68l-177.49-11.82,94.76-150.54c1.8-2.87,2.24-6.39,1.19-9.61-1.05-3.22-3.47-5.81-6.61-7.07l-165.15-66.09,136.64-113.89c2.6-2.17,4.11-5.38,4.11-8.77s-1.5-6.6-4.1-8.77l-136.64-113.89,165.15-66.09c3.14-1.26,5.57-3.85,6.61-7.07,1.05-3.22.61-6.74-1.19-9.61l-94.76-150.54,77.31-5.15,85.81,102.15c-3.18,7.1-6.27,14.25-9.2,21.5-30.14,74.61-45.42,153.85-45.42,235.51s15.28,160.89,45.42,235.51c29.13,72.12,70.85,136.91,123.99,192.55,53.21,55.72,115.2,99.48,184.25,130.06,71.58,31.7,147.61,47.78,225.98,47.78s154.4-16.07,225.98-47.78c64.68-28.65,123.17-68.86,174.05-119.63-15.79,31.22-23.46,65.22-22.79,99.35ZM162.5,569.19c0,33.72-27.34,61.06-61.06,61.06s-61.06-27.34-61.06-61.06,27.34-61.06,61.06-61.06c4.05,0,8,.4,11.82,1.15l44.51-32.99,25.01,22.96c9.11,8.36,19.73,14.04,30.89,17.06l-52.74,39.19c1.01,4.4,1.56,8.97,1.56,13.68ZM207.02,359.23l52.35,35.63.34.22c12.55,7.9,21.41,22.77,23.7,39.77,2.28,16.91-2.28,33.48-12.21,44.35-.53.58-1.08,1.15-1.64,1.71-19.6,19.59-50.93,20.26-71.35,1.52l-41.12-37.74c-4.64-4.26-11.86-3.95-16.12.69-3.95,4.3-3.97,10.81-.25,15.14l-19.84,14.7c-5.15-8.4-9.5-15.99-12.92-22.24-14.08-25.69-11.1-56.77,7.59-79.17,22.47-26.93,61.76-33.19,91.47-14.59ZM316.48,214.75l49.34,41.64-51.2,28.17c-4.53,2.49-8.69,5.4-12.48,8.65l-55.13-34.77c-5.36-3.38-11.04-6.03-16.92-7.95.88-10.49,4.89-20.81,12.18-29.45,9.03-10.7,21.74-17.24,35.81-18.43,14.06-1.19,27.7,3.12,38.4,12.15ZM314.66,186.71c2.01-6.62,5.34-12.96,10.08-18.58,18.73-22.19,52.02-25.01,74.21-6.28l55.52,46.85c10.7,9.03,17.24,21.74,18.43,35.81.13,1.56.18,3.12.18,4.67-3.22-1.37-6.51-2.64-9.88-3.74-24.69-8.06-50.51-7.81-74.49.41l-57.53-48.54c-5.09-4.3-10.65-7.83-16.53-10.6ZM306.03,431.8c-1.76-13.01-6.24-24.96-12.92-35.04,8.28,10.05,19.14,17.88,31.55,22.47,4.77,1.76,9.67,3.01,14.63,3.75l-32.55,24.19c.21-5.04,0-10.18-.71-15.37ZM234.83,277.73l52.32,33c-12.03,19.59-14.71,44.37-5.45,67,1.85,4.51,4.14,8.78,6.79,12.79-4.72-5.73-10.23-10.69-16.44-14.63l-52.37-35.64-.34-.22c-19.9-12.54-43.08-16.61-64.98-12.98-1.09-11.53,1.59-22.99,7.83-32.87,7.47-11.84,19.16-20.07,32.93-23.19,13.76-3.12,27.87-.72,39.71,6.74ZM251.62,516.56c12.48-3.21,24.3-9.72,34.08-19.5.8-.8,1.59-1.62,2.35-2.46,3.16-3.46,5.92-7.25,8.31-11.28l49.97-37.13c3.28,7.94,8.35,16.23,16.15,23.59,2.2,2.08,5.02,3.11,7.83,3.11,3.03,0,6.06-1.2,8.3-3.58,4.33-4.58,4.12-11.81-.47-16.13-6.92-6.53-10.64-14.36-12.63-21.25l28.92-21.49,25.1-12.88c5.61-2.88,7.82-9.75,4.94-15.36-2.88-5.61-9.76-7.82-15.36-4.94l-35.25,18.08c-12.96,6.65-27.63,7.53-41.29,2.48-13.66-5.05-24.23-15.26-29.75-28.74-9.91-24.19-.11-51.93,22.8-64.53l55.14-30.34c23.31-12.82,50.07-15.34,75.36-7.08,25.38,8.29,45.58,26.19,56.88,50.42,18.21,39.04,28,76.15,29.12,110.43-11.09-.91-23.39-.07-36.72,2.64-35.1,7.14-73.8,26.34-108.95,54.06-35.16,27.73-62.84,60.88-77.97,93.35-4.19,9.01-7.29,17.71-9.33,26.04-37.21,9.47-76.23-3.72-116.07-39.28-.96-.86-1.9-1.74-2.85-2.62l61.39-45.62ZM564.63,105.31l51.12,29.01c1.04.69,1.9,1.04,2.76,1.04s1.73-.35,2.76-1.04l51.12-29.01c2.07-1.38,3.45-2.76,3.45-4.84v-60.1c3.45,2.07,6.22,4.14,9.67,7.6,37.3,36.61,32.47,100.85-8.98,142.3-17.27,16.58-36.61,29.01-57.33,31.78-13.26,1.81-80.64,52.49-97.64,65.41-7.46-10.14-16.44-18.93-26.65-26.14,1-6.11,1.27-12.39.74-18.73-1.23-14.54-6.49-28.08-15.09-39.36,13.64-24.52,22.12-47.77,25.35-69.59,4.14-27.63,13.12-55.95,34.54-77.37,5.97-6.64,19.6-14.55,20.66-14.55.04,0,.07.01.07.04v58.71c0,1.38,1.38,3.45,3.45,4.84ZM339.17,587.67c13.64-29.3,39.01-59.51,71.41-85.07,32.41-25.56,67.7-43.18,99.37-49.62,8.33-1.69,16.13-2.53,23.27-2.53,17.31,0,30.69,4.9,38.11,14.31,10.48,13.29,9.44,36.05-2.85,62.44-2.26,4.86-4.87,9.74-7.76,14.62l-13.89-15.01c-10.61-13.87-51.32-.56-90.94,29.72-39.62,30.29-63.14,66.09-52.53,79.96l16.25,19.34c-7.43,2.55-14.77,4.6-21.91,6.05-28.53,5.8-50.9,1.5-61.38-11.78-10.48-13.29-9.44-36.05,2.85-62.44ZM724.85,571.46c2.74-1.99,4.45-5.1,4.68-8.47l11.82-177.49,150.54,94.76c2.87,1.81,6.39,2.24,9.61,1.2,3.22-1.05,5.81-3.47,7.07-6.61l66.09-165.15,113.89,136.64c2.17,2.6,5.38,4.11,8.77,4.11s6.6-1.5,8.77-4.11l113.89-136.64,66.09,165.15c1.26,3.14,3.85,5.57,7.07,6.61,3.22,1.04,6.74.61,9.61-1.2l150.54-94.76,11.82,177.49c.22,3.38,1.94,6.48,4.68,8.47,2.74,1.99,6.23,2.66,9.5,1.83l172.45-43.6-43.6,172.45c-.83,3.28-.16,6.77,1.83,9.5,1.99,2.74,5.1,4.45,8.47,4.68l177.48,11.82-94.76,150.54c-1.8,2.87-2.24,6.39-1.19,9.61,1.05,3.22,3.47,5.81,6.61,7.07l165.15,66.09-136.64,113.89c-2.6,2.17-4.1,5.38-4.1,8.77s1.5,6.6,4.1,8.77l136.64,113.89-65.78,26.32c-24.41-51.16-70.81-97.39-139.96-125.59.33-8.42.53-16.86.53-25.33,0-81.66-15.28-160.9-45.42-235.51-29.13-72.12-70.85-136.91-123.99-192.55-53.21-55.72-115.2-99.48-184.25-130.06-71.58-31.7-147.61-47.78-225.98-47.78s-154.41,16.07-225.98,47.78c-69.05,30.58-131.04,74.34-184.25,130.06-2.03,2.13-4.01,4.29-6.01,6.44l-93.77-101.3c3.9-6.15,7.35-12.28,10.35-18.35l128.15,32.4c3.28.83,6.77.16,9.5-1.83ZM1782.74,1518.67c12.95-2.26,26.2-.1,37.89,6.33,13.73,7.54,23.65,19.99,27.93,35.05,1.46,5.14,2.18,10.38,2.22,15.58-.92-.55-1.84-1.1-2.79-1.62-18.96-10.42-40.85-12.82-61.62-6.78-2.23.65-4.42,1.39-6.56,2.21,4.38-16.52,5.38-33.72,2.93-50.77ZM1830.98,1486.1c-2.69,5.18-7,9.55-12.65,13.07-13.13-4.42-27.11-5.36-40.83-2.72-10.42-31.7-32.26-57.67-61.87-73.36l-61.8-32.74c-20.57-10.9-44.13-13.02-66.32-5.98-6.41,2.04-12.47,4.78-18.1,8.14,0-.16.02-.3.02-.46-8.44-17.01-10.02-32.4-4.15-43.74,7.64-14.74,28.17-23.14,56.45-23.14.54,0,1.08,0,1.62,0,32.32.36,70.3,11.02,106.93,30.02,36.64,19,67.23,43.9,86.15,70.1,17.04,23.61,22.34,45.76,14.55,60.79ZM1550.48,1405.11c-99.8,156.8-270.17,260.12-463.61,260.12-307.52,0-556.82-261.05-556.82-583.08s249.3-583.08,556.82-583.08,556.82,261.05,556.82,583.08c0,5.71-.1,11.39-.25,17.06-14.83-4.87-30.56-8.97-47.23-12.17-22.53-5.81-50.66,27.72-62.83,74.9-12.18,47.18-3.78,90.14,18.74,95.95.9.23,1.8.38,2.71.49,8.6,1.63,35.94,7.51,56.57,19.7-2.93,8.61-6.05,17.12-9.35,25.54-27.43,3.71-47.33,15.5-57.02,34.19-9.82,18.94-7.79,42.37,5.46,67.3ZM1634.68,1302.86c-2.62-.19-5.21-.32-7.78-.39,1.05-2.82,2.11-5.64,3.12-8.47,2.01,2.77,3.6,5.72,4.66,8.86ZM1507.22,1531.02l49.8-92.95c.04-.08.08-.16.12-.23,7.73-15.26,20.97-26.52,37.27-31.7,16.3-5.18,33.61-3.62,48.73,4.39l61.8,32.74c25.22,13.36,43.62,35.78,51.79,63.13,8.18,27.35,5.11,56.18-8.63,81.2l-39.14,71.25c-3.03,5.52-1.02,12.46,4.51,15.5,5.53,3.04,12.46,1.02,15.5-4.51l16.97-30.9c.16-.24.3-.49.44-.74l11.63-21.19c7.47-13.62,19.81-23.51,34.73-27.85,14.91-4.34,30.63-2.61,44.25,4.87,13.73,7.54,23.65,19.99,27.93,35.05,4.29,15.06,2.41,30.86-5.29,44.5l-19.89,35.24c-24.54,43.49-64.51,74.98-112.52,88.67-48.02,13.69-98.58,8.01-142.37-16-43.15-23.66-74.93-62.57-89.48-109.58-14.54-46.96-10.34-96.98,11.84-140.86Z"/>
        </g>
      </g>
    </g>
  </g>
</svg>